<svg height="68" viewBox="0 0 150 68" width="150" xmlns="http://www.w3.org/2000/svg"><mask id="a" fill="#fff"><path d="M0 .502h149.814v53.23H0z" fill-rule="evenodd"/></mask><mask id="b" fill="#fff"><path d="M0 67.191h149.815V0H0z" fill-rule="evenodd"/></mask><g fill="none" fill-rule="evenodd"><path d="M136.197 7.951a7.45 7.45 0 01-7.45 7.45h-15.289a6.256 6.256 0 00-.046 12.513l29.135.215a7.322 7.322 0 01-.055 14.644H131.13c-6.943 0-12.571-1.069-12.571 5.874v5.085l-83.81-.325c0-6.53-5.294-5.126-11.823-5.126H8.043a8.043 8.043 0 110-16.086h24.931a7.413 7.413 0 100-14.826h-11.78a8.433 8.433 0 110-16.867h107.553a7.449 7.449 0 017.45 7.45" fill="#dfecff" mask="url(#a)" transform="translate(0 12.95)"/><g fill="#0053cc"><path d="M132.45 26.92h-2.862a.502.502 0 010-1.005h2.862a.502.502 0 010 1.005"/><path d="M131.019 28.351a.502.502 0 01-.502-.502v-2.862a.502.502 0 011.004 0v2.862a.502.502 0 01-.502.502M61.675 13.699h-2.861a.502.502 0 010-1.005h2.86a.502.502 0 010 1.005"/><path d="M60.244 15.13a.502.502 0 01-.502-.502v-2.862a.502.502 0 011.004 0v2.862a.502.502 0 01-.502.502m41.376-8.598a.502.502 0 01-.355-.857l2.024-2.023a.502.502 0 11.71.71l-2.024 2.023a.498.498 0 01-.355.147"/><path d="M103.644 6.532a.498.498 0 01-.355-.147l-2.024-2.023a.502.502 0 11.71-.71L104 5.675a.502.502 0 01-.355.857M10.72 23.854a.502.502 0 01-.355-.857l2.024-2.024a.502.502 0 11.71.71l-2.024 2.024a.498.498 0 01-.354.147"/><path d="M12.745 23.854a.498.498 0 01-.355-.147l-2.025-2.024a.502.502 0 11.71-.71l2.024 2.024a.502.502 0 01-.354.857"/><path d="M50.137 1.004h19.68V0h-19.68zm34.73 14.794h19.682v-1.005H84.867zM60.711 5.52h36.39V4.517H60.71zM2.531 30.933h18.402v-1.005H2.531zm127.056.444h12.96v-1.005h-12.96zM70.823 1.004h2.39V0h-2.39zm10.079 20.434a.902.902 0 11-1.804 0 .902.902 0 011.804 0M21.415 45.32a1.179 1.179 0 11-2.358 0 1.179 1.179 0 012.358 0M36.67 10.368a1.179 1.179 0 11-2.357 0 1.179 1.179 0 012.357 0m96.958 45.104a1.179 1.179 0 11-2.357 0 1.179 1.179 0 012.357 0M18.564 66.86h109.701v-1.005H18.564zm-3.056 0h1.834v-1.005h-1.834zm113.803 0h4.052v-1.005h-4.052z" mask="url(#b)"/></g><path d="M74.304 35.469H37.197l-3.183 4.428h43.442z" fill="#4d93ff" mask="url(#b)"/><path d="M34.466 40.222l-.904-.65 3.35-4.66h37.68l3.318 4.662-.908.646-2.985-4.194H37.483z" fill="#0053cc" mask="url(#b)"/><path d="M65.517 39.837H34.088v26.128h43.294V39.837z" fill="#fff" mask="url(#b)"/><path d="M34.645 65.408h42.18V40.394h-42.18zm-1.114 1.114h44.408V39.28H33.531z" fill="#0053cc" mask="url(#b)"/><path d="M36.385 46.679h2.702v-3.73h-2.702zm4.24 0h2.702v-3.73h-2.702zm-4.24 5.426h2.702v-3.73h-2.702zm4.24 0h2.702v-3.73h-2.702zm-4.24 5.426h2.702v-3.73h-2.702zm4.24 0h2.702v-3.73h-2.702z" fill="#4d93ff" mask="url(#b)"/><path d="M34.304 42.03H69.16v-1.574H34.304z" fill="#5fa0ff" mask="url(#b)"/><path d="M33.464 41.274h35.697V39.7H33.464z" fill="#0065ff" mask="url(#b)"/><path d="M34.021 40.717h34.583v-.46H34.021zm-1.114 1.114h36.812v-2.688H32.907z" fill="#0053cc" mask="url(#b)"/><path d="M44.541 65.965h3.612V42.062H44.54z" fill="#5fa0ff" mask="url(#b)"/><path d="M45.595 65.752h20.648V32.719H45.595z" fill="#fff" mask="url(#b)"/><path d="M46.09 65.408h19.533V33.49H46.09zm-1.115 1.114h21.762V32.375H44.975z" fill="#0053cc" mask="url(#b)"/><path d="M45.742 34.712h20.253v-1.888H45.742z" fill="#5fa0ff" mask="url(#b)"/><path d="M44.541 33.806h22.697v-1.89H44.541z" fill="#0065ff" mask="url(#b)"/><path d="M65.232 34.362H43.984V31.36h20.747v1.114H45.098v.774h20.134z" fill="#0053cc" mask="url(#b)"/><path d="M51.992 41.782h2.702v-5.664h-2.702zm5.05.068h2.7v-5.665h-2.7zm-5.049 7.413h2.701v-5.665h-2.7zm5.05-.028h2.701V43.57h-2.701zm-10.099-.055h2.701v-5.665h-2.701zm-.143-7.398h2.702v-5.664h-2.702zm15.341.068h2.702v-5.665h-2.702zm-.051 7.357h2.702v-5.664h-2.702z" fill="#4d93ff" mask="url(#b)"/><path d="M59.393 65.87h-6.948v-5a3.474 3.474 0 016.948 0z" fill="#fff" mask="url(#b)"/><path d="M53.003 65.313h5.832V60.87a2.92 2.92 0 00-2.916-2.916 2.919 2.919 0 00-2.916 2.916zm6.947 1.114h-8.061V60.87a4.035 4.035 0 014.03-4.03 4.036 4.036 0 014.03 4.03z" fill="#0053cc" mask="url(#b)"/><path d="M55.362 65.87h1.114v-8.239h-1.114z" fill="#0053cc" mask="url(#b)"/><path d="M47.427 66.017h1.855V34.712h-1.855zm14.97 0h1.927V34.712h-1.927z" fill="#5fa0ff" mask="url(#b)"/><path d="M48.169 66.017h2.51V33.805h-2.51z" fill="#fff" mask="url(#b)"/><path d="M49.783 66.017h.69V33.805h-.69z" fill="#fff" mask="url(#b)"/><path d="M48.726 65.46h1.395V34.362h-1.395zm-1.114 1.115h3.624V33.247h-3.624z" fill="#0053cc" mask="url(#b)"/><path d="M61.045 66.017h2.51V33.805h-2.51z" fill="#fff" mask="url(#b)"/><path d="M61.046 66.017h.804V33.805h-.804z" fill="#fff" mask="url(#b)"/><path d="M61.603 65.46h1.395V34.362h-1.395zm-1.115 1.115h3.624V33.247h-3.624z" fill="#0053cc" mask="url(#b)"/><path d="M68.747 32.097H43.091l12.829-9.35z" fill="#fff" mask="url(#b)"/><path d="M65.217 32.654H41.381L55.92 22.057l9.861 7.188-.656.902-9.205-6.712-11.117 8.105h20.415zM35.985 58.089h3.375v-1.114h-3.375zm4.24 0h3.376v-1.114h-3.376zm-4.24-5.427h3.375v-1.114h-3.375zm4.24 0h3.376v-1.114h-3.376zm-4.24-5.427h3.375v-1.114h-3.375zm4.24 0h3.376v-1.114h-3.376zm11.361 2.585h3.376v-1.114h-3.376zm5.251 0h3.376v-1.114h-3.376zm-5.251-7.48h3.376v-1.115h-3.376zm-5.054 0h1.283v-1.115h-1.283zm0 7.411h1.283v-1.114h-1.283zm10.305-7.411h3.376v-1.115h-3.376z" fill="#0053cc" mask="url(#b)"/><path d="M108.276 38.023c0 6.8-5.513 12.314-12.313 12.314-6.801 0-12.315-5.514-12.315-12.314s5.514-12.314 12.314-12.314c6.801 0 12.314 5.513 12.314 12.314" fill="#fff" mask="url(#b)"/><path d="M102.39 38.023a6.429 6.429 0 11-12.856 0 6.429 6.429 0 0112.857 0" fill="#5fa0ff" mask="url(#b)"/><path d="M95.963 37.921a.102.102 0 00-.102.101c0 .113.203.114.203 0a.101.101 0 00-.101-.1m0 1.207a1.107 1.107 0 010-2.212 1.107 1.107 0 010 2.212" fill="#0053cc" mask="url(#b)"/><path d="M100.667 49.947l-.37-.934a11.75 11.75 0 007.477-10.99c0-6.147-4.796-11.32-10.916-11.778a11.978 11.978 0 00-4.338.476l-.292-.961a13 13 0 014.704-.517c6.643.497 11.846 6.11 11.846 12.78a12.75 12.75 0 01-8.111 11.924M87.55 29.731l-.715-.705a12.778 12.778 0 013.384-2.462l.45.896a11.86 11.86 0 00-3.119 2.271m-3.399 8.292h-1.004c0-2.554.748-5.019 2.165-7.13l.834.558a11.755 11.755 0 00-1.995 6.572" fill="#0053cc" mask="url(#b)"/><path d="M97.24 66.046H67.503a1.208 1.208 0 01-1.208-1.209V43.613c0-.667.541-1.208 1.208-1.208H97.24c.668 0 1.208.54 1.208 1.208v21.225c0 .667-.54 1.209-1.208 1.209" fill="#fff" mask="url(#b)"/><g fill="#0053cc"><path d="M67.504 42.906a.707.707 0 00-.707.706v21.226c0 .389.317.706.707.706H97.24c.39 0 .706-.317.706-.707V43.612a.707.707 0 00-.706-.706zM97.24 66.548H67.504a1.713 1.713 0 01-1.711-1.71V43.612c0-.943.768-1.71 1.71-1.71H97.24c.943 0 1.71.767 1.71 1.71v21.225c0 .943-.767 1.711-1.71 1.711z" mask="url(#b)"/><path d="M72.016 48.631h1.48v-1.004h-1.48zm3.269 0h1.48v-1.004h-1.48zm3.27 0h1.48v-1.004h-1.48zm3.27 0h1.48v-1.004h-1.48zm3.27 0h1.48v-1.004h-1.48zm3.27 0h1.479v-1.004h-1.48zm3.269 0h1.48v-1.004h-1.48zm-19.618 3.42h1.48v-1.004h-1.48zm3.269 0h1.48v-1.004h-1.48zm3.27 0h1.48v-1.004h-1.48zm3.27 0h1.48v-1.004h-1.48zm3.27 0h1.48v-1.004h-1.48zm3.27 0h1.479v-1.004h-1.48zm3.269 0h1.48v-1.004h-1.48zM72.016 55.47h1.48v-1.005h-1.48zm3.269 0h1.48v-1.005h-1.48zm3.27 0h1.48v-1.005h-1.48zm3.27 0h1.48v-1.005h-1.48zm3.27 0h1.48v-1.005h-1.48zm3.27 0h1.479v-1.005h-1.48zm3.269 0h1.48v-1.005h-1.48zm-19.618 3.42h1.48v-1.005h-1.48zm3.269 0h1.48v-1.005h-1.48zm3.27 0h1.48v-1.005h-1.48zm3.27 0h1.48v-1.005h-1.48zm3.27 0h1.48v-1.005h-1.48zm3.27 0h1.479v-1.005h-1.48zm3.269 0h1.48v-1.005h-1.48zm-19.618 3.418h1.48v-1.004h-1.48zm3.269 0h1.48v-1.004h-1.48zm3.27 0h1.48v-1.004h-1.48zm3.27 0h1.48v-1.004h-1.48zm3.27 0h1.48v-1.004h-1.48zm3.27 0h1.479v-1.004h-1.48zm3.269 0h1.48v-1.004h-1.48zM70.945 44.296h1.005V39.13h-1.005zm3.571 0h1.004V39.13h-1.004zm3.57 0h1.005V39.13h-1.005zm3.57 0h1.005V39.13h-1.005zm3.571 0h1.004V39.13h-1.004zm3.57 0h1.005V39.13h-1.005zm3.571 0h1.004V39.13h-1.004zm3.092-15.39h1.005v-2.139H95.46zm5.503 1.478l-.87-.503 1.073-1.852.87.503zm3.154 3.532l-.5-.87 1.854-1.067.502.871zm3.1 4.644l-2.14-.007.004-1.005 2.14.008zm-1.783 5.565l-1.849-1.078.506-.867 1.85 1.077zm-4.33 3.924l-1.06-1.858.872-.5 1.06 1.86zM86.842 38.44l-2.14-.019.01-1.004 2.14.019zm1.017-4.624l-1.841-1.09.511-.864 1.842 1.09zm3.198-3.494l-1.049-1.865.875-.492 1.05 1.866zm4.403 7.736l.208-7.573h.59l.207 7.573z" mask="url(#b)"/><path d="M95.95 37.556l6.67.035.016.59-6.66.378z" mask="url(#b)"/></g><path d="M99.32 61.013h-2.177V57.99h2.094l.796 1.96a.77.77 0 01-.714 1.062" fill="#fff" mask="url(#b)"/><path d="M97.645 60.51h1.674a.27.27 0 00.25-.37l-.67-1.646h-1.254zm1.674 1.005h-2.678v-4.026h2.934l.924 2.274c.16.393.114.838-.124 1.19a1.268 1.268 0 01-1.056.562z" fill="#0053cc" mask="url(#b)"/><path d="M99.01 66.69h-2.594a.727.727 0 01-.703-.545l-1.996-7.653h4.095l1.901 7.287c.12.46-.227.91-.703.91" fill="#b0d0ff" mask="url(#b)"/><path d="M94.366 58.994L96.2 66.02a.225.225 0 00.217.168h2.594a.222.222 0 00.178-.087.222.222 0 00.04-.195l-1.803-6.91zm4.644 8.197h-2.594a1.23 1.23 0 01-1.189-.919l-2.16-8.282H98.2l1.998 7.662c.096.37.018.758-.216 1.061a1.219 1.219 0 01-.973.478z" fill="#0053cc" mask="url(#b)"/><path d="M113.071 61.866l-12.36-3.178v-8.764l12.36-3.178a.892.892 0 011.114.864v13.393a.891.891 0 01-1.114.863" fill="#fff" mask="url(#b)"/><path d="M100.71 56.232l13.475 3.465V58.47l-13.474-3.465z" fill="#b0d0ff" mask="url(#b)"/><path d="M94.33 54.307a2.798 2.798 0 11-5.596 0 2.798 2.798 0 015.597 0" fill="#fff" mask="url(#b)"/><path d="M91.533 52.01a2.299 2.299 0 00-2.296 2.297 2.298 2.298 0 002.296 2.295 2.298 2.298 0 002.295-2.295 2.298 2.298 0 00-2.295-2.297m0 5.597c-1.82 0-3.3-1.48-3.3-3.3 0-1.82 1.48-3.301 3.3-3.301 1.82 0 3.3 1.48 3.3 3.3 0 1.82-1.48 3.3-3.3 3.3m21.912 4.834c-.104 0-.209-.013-.313-.04l-12.924-3.322v-9.543l5.877-1.51.25.972-5.123 1.317v7.984l12.17 3.13a.24.24 0 00.3-.233V47.418a.236.236 0 00-.093-.19.236.236 0 00-.207-.043l-2.49.64-.25-.973 2.49-.64a1.239 1.239 0 011.073.222c.306.238.482.596.482.984v13.777c0 .387-.176.746-.482.983a1.24 1.24 0 01-.76.262" fill="#0053cc" mask="url(#b)"/><path d="M107.573 48.679l-.25-.973 1.727-.444.25.973z" fill="#0053cc" mask="url(#b)"/><path d="M91.446 58.688h9.593v-8.763h-9.593z" fill="#b0d0ff" mask="url(#b)"/><path d="M91.446 58.688h9.593v-3.602h-9.593z" fill="#5fa0ff" mask="url(#b)"/><path d="M92.649 50.427a.7.7 0 00-.7.7v6.358a.7.7 0 00.7.7h7.888v-7.758zm8.892 8.763H92.65c-.94 0-1.705-.764-1.705-1.705v-6.357c0-.94.764-1.706 1.705-1.706h8.892z" fill="#0053cc" mask="url(#b)"/><path d="M45.705 44.631a.882.882 0 01-1.764 0v-.854a.882.882 0 011.764 0z" fill="#fff" mask="url(#b)"/><path d="M44.823 43.29a.488.488 0 00-.487.487v.854a.488.488 0 00.974 0v-.854a.488.488 0 00-.487-.487m0 2.618a1.278 1.278 0 01-1.277-1.277v-.854c0-.704.573-1.277 1.277-1.277s1.277.573 1.277 1.277v.854c0 .704-.573 1.277-1.277 1.277" fill="#0053cc" mask="url(#b)"/><path d="M30.767 44.631a.882.882 0 01-1.764 0v-.854a.882.882 0 011.764 0z" fill="#fff" mask="url(#b)"/><path d="M29.884 43.29a.488.488 0 00-.487.487v.854a.488.488 0 00.975 0v-.854a.488.488 0 00-.488-.487m0 2.618a1.278 1.278 0 01-1.277-1.277v-.854a1.279 1.279 0 012.555 0v.854c0 .704-.573 1.277-1.278 1.277" fill="#0053cc" mask="url(#b)"/><path d="M46.887 65.821v-5.813c0-4.444-4.238-8.081-9.418-8.081-5.18 0-9.419 3.637-9.419 8.081v5.813z" fill="#0065ff" mask="url(#b)"/><path d="M28.446 65.821h-.79v-5.813c0-.682.094-1.363.283-2.02l.759.217a6.577 6.577 0 00-.252 1.803zm.891-9.132l-.687-.39a8.626 8.626 0 011.832-2.23l.52.594a7.863 7.863 0 00-1.665 2.026m13.984-2.518c-1.634-1.192-3.713-1.85-5.852-1.85-1.84 0-3.615.476-5.131 1.375l-.403-.68c1.638-.971 3.551-1.484 5.534-1.484 2.305 0 4.55.71 6.318 2.001zm-10.334 11.65h.79v-6.374h-.79zm8.246 0h.79v-6.374h-.79z" fill="#0053cc" mask="url(#b)"/><path d="M37.13 55.194a1.762 1.762 0 01-1.763-1.762V49.46c0-.834.677-1.51 1.512-1.51h.5c.835 0 1.512.676 1.512 1.51v3.972c0 .973-.789 1.762-1.762 1.762" fill="#fff" mask="url(#b)"/><path d="M36.88 48.344c-.616 0-1.117.501-1.117 1.117v3.971a1.368 1.368 0 002.733 0v-3.971c0-.616-.5-1.117-1.117-1.117zm.25 7.245a2.159 2.159 0 01-2.157-2.157v-3.971a1.91 1.91 0 011.906-1.907h.5a1.91 1.91 0 011.908 1.907v3.971a2.16 2.16 0 01-2.157 2.157z" fill="#0053cc" mask="url(#b)"/><path d="M37.274 51.718c-3.684 0-6.699-3.015-6.699-6.699v-4.541c0-3.685 3.015-3.602 6.7-3.602s6.7-.083 6.7 3.602v4.541c0 3.684-3.015 6.7-6.7 6.7" fill="#fff" mask="url(#b)"/><path d="M36.808 37.271c-1.628 0-3.151.017-4.201.422-1.132.436-1.637 1.294-1.637 2.784v4.542a6.311 6.311 0 006.304 6.304 6.311 6.311 0 006.305-6.304v-4.542c0-1.49-.505-2.348-1.637-2.784-1.1-.423-2.711-.423-4.428-.422h-.479zm.466 14.842a7.102 7.102 0 01-7.094-7.094v-4.542c0-1.814.7-2.966 2.142-3.521 1.237-.477 2.922-.475 4.713-.475h.478c1.796-.001 3.477-.002 4.713.475 1.443.555 2.143 1.707 2.143 3.521v4.542a7.102 7.102 0 01-7.095 7.094z" fill="#0053cc" mask="url(#b)"/><path d="M30.607 43.327a1.604 1.604 0 01-1.605-1.605v-3.856a2.404 2.404 0 012.404-2.404c0-1.091.884-1.975 1.975-1.975h9.744a2.387 2.387 0 012.388 2.388v5.79c0 .858-.723 1.537-1.579 1.484v-3.823s-1.1 1.798-4.565 1.793c-4.186-.005-6.907-2.072-6.907-2.072s-.257.569-.819 1.065c-.515.457-1.036.295-1.036.295z" fill="#b0d0ff" mask="url(#b)"/><path d="M30.607 43.327v-2.92s.521.162 1.036-.295c.562-.496.819-1.065.819-1.065s5.503 2.887 8.776 1.82c-3.56-1.53-8.174-2.46-8.94-7.056-.537.353-.892.96-.892 1.65a2.404 2.404 0 00-2.404 2.405v3.856c0 .887.719 1.605 1.605 1.605" fill="#5fa0ff" mask="url(#b)"/><path d="M31.002 43.722h-.395c-1.103 0-2-.897-2-2v-3.856a2.804 2.804 0 012.433-2.775 2.374 2.374 0 012.341-2h9.744a2.786 2.786 0 012.783 2.784v5.79c0 .517-.216 1.017-.592 1.372-.377.354-.888.54-1.407.507l-.37-.023v-4.195h.79v3.39a1.101 1.101 0 00.789-1.051v-5.79a1.996 1.996 0 00-1.993-1.993h-9.744c-.87 0-1.58.708-1.58 1.58v.395h-.394a2.011 2.011 0 00-2.01 2.009v3.857c0 .528.342.979.815 1.142v-2.994l.512.158c.006.001.326.08.658-.213.484-.428.717-.927.72-.932l.72.326a3.937 3.937 0 01-.917 1.198c-.303.269-.628.38-.903.412z" fill="#0053cc" mask="url(#b)"/><path d="M39.38 41.514h-.011c-4.267-.005-7.928-2.676-8.081-2.79l.47-.635c.035.027 3.61 2.63 7.612 2.635h.01c3.207 0 4.682-2.18 4.697-2.201l.66.435c-.07.104-1.73 2.556-5.358 2.556" fill="#0053cc" mask="url(#b)"/></g></svg>